<svg width="16" height="16" viewBox="0 0 16 16" fill="none" xmlns="http://www.w3.org/2000/svg">
<path d="M11.5314 10.3849L8.33716 13.1796L5.14296 10.3849C2.74899 10.4757 0.837158 12.1895 0.837158 14.3046V14.5858C0.837158 15.3622 1.55702 15.992 2.4443 15.992H14.23C15.1173 15.992 15.8372 15.3622 15.8372 14.5858V14.3046C15.8372 12.1895 13.9253 10.4757 11.5314 10.3849ZM1.29252 3.33051L1.5068 3.37446V5.08531C1.27243 5.20835 1.10502 5.42221 1.10502 5.68001C1.10502 5.92609 1.25903 6.13116 1.47667 6.25713L0.954346 8.08223C0.897426 8.28437 1.02466 8.49237 1.20881 8.49237H2.60836C2.79252 8.49237 2.91975 8.28437 2.86283 8.08223L2.34051 6.25713C2.55814 6.13116 2.71216 5.92609 2.71216 5.68001C2.71216 5.42221 2.54475 5.20835 2.31037 5.08531V3.54437L4.52019 4.01017C4.23225 4.51405 4.05144 5.07652 4.05144 5.68001C4.05144 7.75119 5.96997 9.42982 8.33716 9.42982C10.7043 9.42982 12.6229 7.75119 12.6229 5.68001C12.6229 5.07652 12.4454 4.51405 12.1541 4.01017L15.3785 3.33051C15.9878 3.20161 15.9878 2.53661 15.3785 2.40771L9.00345 1.06012C8.56818 0.9693 8.10948 0.9693 7.67421 1.06012L1.29252 2.40478C0.686489 2.53368 0.686489 3.20161 1.29252 3.33051Z" fill="white"/>
</svg>
