<svg width="16" height="16" viewBox="0 0 16 16" fill="none" xmlns="http://www.w3.org/2000/svg">
<path d="M2.9646 7.41658C3.79194 7.41658 4.4646 6.45564 4.4646 5.27372C4.4646 4.0918 3.79194 3.13086 2.9646 3.13086C2.13726 3.13086 1.4646 4.0918 1.4646 5.27372C1.4646 6.45564 2.13726 7.41658 2.9646 7.41658ZM13.4646 7.41658C14.2919 7.41658 14.9646 6.45564 14.9646 5.27372C14.9646 4.0918 14.2919 3.13086 13.4646 3.13086C12.6373 3.13086 11.9646 4.0918 11.9646 5.27372C11.9646 6.45564 12.6373 7.41658 13.4646 7.41658ZM14.2146 8.48801H12.7146C12.3021 8.48801 11.9294 8.72573 11.6576 9.11077C12.6021 9.85073 13.2724 11.1867 13.4177 12.7737H14.9646C15.3794 12.7737 15.7146 12.2949 15.7146 11.7023V10.6309C15.7146 9.44894 15.0419 8.48801 14.2146 8.48801ZM8.2146 8.48801C9.66538 8.48801 10.8396 6.81055 10.8396 4.73801C10.8396 2.66546 9.66538 0.988007 8.2146 0.988007C6.76382 0.988007 5.5896 2.66546 5.5896 4.73801C5.5896 6.81055 6.76382 8.48801 8.2146 8.48801ZM10.0146 9.55943H9.82007C9.33257 9.89426 8.79116 10.0951 8.2146 10.0951C7.63804 10.0951 7.09897 9.89426 6.60913 9.55943H6.4146C4.92397 9.55943 3.7146 11.2871 3.7146 13.4166V14.3809C3.7146 15.2681 4.21851 15.988 4.8396 15.988H11.5896C12.2107 15.988 12.7146 15.2681 12.7146 14.3809V13.4166C12.7146 11.2871 11.5052 9.55943 10.0146 9.55943ZM4.77163 9.11077C4.49976 8.72573 4.1271 8.48801 3.7146 8.48801H2.2146C1.38726 8.48801 0.7146 9.44894 0.7146 10.6309V11.7023C0.7146 12.2949 1.04976 12.7737 1.4646 12.7737H3.00913C3.15679 11.1867 3.8271 9.85073 4.77163 9.11077Z" fill="white"/>
</svg>
