<svg width="16" height="16" viewBox="0 0 16 16" fill="none" xmlns="http://www.w3.org/2000/svg">
<path d="M15.8372 10.7587V0.914948C15.8372 0.525299 15.4789 0.211823 15.0336 0.211823H4.05144C2.27689 0.211823 0.837158 1.47159 0.837158 3.02432V12.3993C0.837158 13.9521 2.27689 15.2118 4.05144 15.2118H15.0336C15.4789 15.2118 15.8372 14.8983 15.8372 14.5087V14.0399C15.8372 13.8202 15.72 13.621 15.5392 13.4921C15.3985 13.0409 15.3985 11.7548 15.5392 11.3036C15.72 11.1776 15.8372 10.9784 15.8372 10.7587ZM5.12287 4.1376C5.12287 4.04092 5.21327 3.96182 5.32377 3.96182H12.422C12.5325 3.96182 12.6229 4.04092 12.6229 4.1376V4.72354C12.6229 4.82022 12.5325 4.89932 12.422 4.89932H5.32377C5.21327 4.89932 5.12287 4.82022 5.12287 4.72354V4.1376ZM5.12287 6.0126C5.12287 5.91592 5.21327 5.83682 5.32377 5.83682H12.422C12.5325 5.83682 12.6229 5.91592 12.6229 6.0126V6.59854C12.6229 6.69522 12.5325 6.77432 12.422 6.77432H5.32377C5.21327 6.77432 5.12287 6.69522 5.12287 6.59854V6.0126ZM13.6072 13.3368H4.05144C3.45881 13.3368 2.98002 12.9179 2.98002 12.3993C2.98002 11.8837 3.46216 11.4618 4.05144 11.4618H13.6072C13.5436 11.9628 13.5436 12.8358 13.6072 13.3368Z" fill="white"/>
</svg>
