<svg width="16" height="16" viewBox="0 0 16 16" fill="none" xmlns="http://www.w3.org/2000/svg">
<path d="M0.903493 12.4652C0.771638 12.6969 0.841961 12.9987 1.06465 13.142L4.16762 15.1297C4.39324 15.273 4.68625 15.2029 4.82397 14.9681C4.82397 14.9651 4.8269 14.962 4.8269 14.962C6.79299 11.5414 7.18563 12.0383 13.0576 14.9407C13.2949 15.0596 13.5791 14.9529 13.6934 14.7059C13.6963 14.7029 13.6963 14.6968 13.6992 14.6937L15.176 11.2152C15.2815 10.9682 15.1731 10.6786 14.9387 10.5658C14.2882 10.2487 12.9989 9.61462 11.8357 9.03232C4.57198 5.35559 2.14293 10.4256 0.903493 12.4652ZM15.7708 2.95017C15.9027 2.71847 15.8324 2.41665 15.6097 2.27336L12.5096 0.288661C12.2899 0.136226 11.9939 0.194151 11.8474 0.422803C11.8416 0.431949 11.8357 0.441095 11.8298 0.45329C9.85788 3.88612 9.45353 3.36784 3.60798 0.480728C3.37064 0.361829 3.08642 0.468534 2.97214 0.715478C2.96921 0.718527 2.96921 0.724624 2.96628 0.727673L1.48658 4.20623C1.3811 4.45318 1.48951 4.7428 1.72392 4.85561C2.3744 5.17267 3.66658 5.8068 4.82983 6.39215C12.0965 10.0506 14.5226 5.00804 15.7708 2.95017Z" fill="white"/>
</svg>
